<?xml version="1.0" encoding="utf-8"?>
<!-- Generator: Adobe Illustrator 16.0.0, SVG Export Plug-In . SVG Version: 6.00 Build 0)  -->
<!DOCTYPE svg PUBLIC "-//W3C//DTD SVG 1.1//EN" "http://www.w3.org/Graphics/SVG/1.1/DTD/svg11.dtd">
<svg version="1.1" id="Layer_1" xmlns="http://www.w3.org/2000/svg" xmlns:xlink="http://www.w3.org/1999/xlink" x="0px" y="0px"
	 width="400px" height="200px" viewBox="0 0 400 200" enable-background="new 0 0 400 200" xml:space="preserve">
<g>
	<path fill="#231F20" d="M13.154,186.838c22-13.5,24.5-41.5,32-64.5c8-26,25.5-57.5,50-71.5c-14,15-16.5,37.5-26,55
		c22.5-37,65.5-68.5,108.5-78c-21.5,5-39.5,33-56,46.5c19.5-18.5,47.5-28,73.5-31.5c19.5-2.5,38.5-6.5,57.5-12
		c12-3,23.167-7.667,38-14.5c-9.5,11.5-21.5,19-33,26.5c-13.5,8.5-31,18.5-47.5,18c9.5-2,19,2,27.5,5.5c16,6.5,34.5,12.5,52,12.5
		c28.5,0,51-19.667,70.5-40.5c-7.333,22.167-19.5,35-34.5,49.5c-20.5,19-44,20-70,22.5c12-1.5,25,6.5,36.5,8c15,2,26.5-2.5,40.5-6
		c-4,8.5-16,16-23.5,21c-15.5,10.5-33.5,17-52,20.5c-39.5,8-74-2-108-22.5c-10.5-6.5-19.5-12-33-8.5c-11.5,3.5-23.5,13.5-30.5,23
		c16-5.5,29-7,44,5c-14,6.5-31.5,7.5-46,12c-22.5,7-45.5,16-65.5,28.5L13.154,186.838z"/>
</g>
</svg>
