<?xml version="1.0" encoding="utf-8"?>
<!-- Generator: Adobe Illustrator 16.0.0, SVG Export Plug-In . SVG Version: 6.00 Build 0)  -->
<!DOCTYPE svg PUBLIC "-//W3C//DTD SVG 1.1//EN" "http://www.w3.org/Graphics/SVG/1.1/DTD/svg11.dtd">
<svg version="1.1" id="Layer_1" xmlns="http://www.w3.org/2000/svg" xmlns:xlink="http://www.w3.org/1999/xlink" x="0px" y="0px"
	 width="400px" height="200px" viewBox="0 0 400 200" enable-background="new 0 0 400 200" xml:space="preserve">
<g>
	<path fill="#231F20" d="M372.87,171.641c-0.009-0.1-0.006-0.193-0.018-0.294c-9.588-5.068-13.999-20.543-17.353-29.347
		c-5.5-15.5-10-31.5-15.5-47c-7.5-22.5-21.5-41-46-48c7,4.5,11.5,9.5,14.5,17.5c3,7.5,1,14.5,2.5,22c-7-1-16-11.5-21.5-15.5
		c-12-9-24.5-16.5-37.5-23.5c-26.5-14.5-58-20-88.5-20.5c15,1,33,8.5,42,21c-6.5,2.5-15.5,0.5-22,0.5c-15.5,0-31,1.5-45.5,5.5
		c-26.5,7-53,19.5-71.5,40c18-8,36-11,55.5-11.5c-8.5,6-19,9-27.5,15.5C82,108,75,123.5,69,138c-4,9-8.5,19-10,29
		c-1,6.5,2,12,1.5,18.5c2-14.5,15.5-24.5,27-31.5c14-8.5,31-19,48-19.5c-18,12-32.5,24.5-39,46c8.5-4,15.5-15,24-21
		c15-10,32.5-18.5,49-25c21.5-8.5,55.5-27,80-18c-26,11.5-50.5,28.5-69,50.5c23.5-12.5,45-27.5,72-31.5c18-2.5,37.5-0.5,54.5,6
		c14.5,5.5,26,15,39.5,22.5C349.785,165.825,365.057,172.971,372.87,171.641z"/>
</g>
</svg>
