<?xml version="1.0" encoding="utf-8"?>
<!-- Generator: Adobe Illustrator 16.0.0, SVG Export Plug-In . SVG Version: 6.00 Build 0)  -->
<!DOCTYPE svg PUBLIC "-//W3C//DTD SVG 1.1//EN" "http://www.w3.org/Graphics/SVG/1.1/DTD/svg11.dtd">
<svg version="1.1" id="Layer_1" xmlns="http://www.w3.org/2000/svg" xmlns:xlink="http://www.w3.org/1999/xlink" x="0px" y="0px"
	 width="400px" height="200px" viewBox="0 0 400 200" enable-background="new 0 0 400 200" xml:space="preserve">
<g>
	<path fill="#231F20" d="M133,148.334c-40.667,25.333-82,20-127.333,23.333C41,185.667,91,189.667,128.333,187
		c30-2,58.667-12,85.334-27.333c10-6.667,20.666-16.667,32.666-20C237,160.334,213.667,175,193.667,183
		c25.333-5.333,50.666-4.666,74.666-18.666c25.334-15.334,34.667-44,55.334-62.667C324.333,111,321,119.667,321,129
		c-0.667,9.334,2,17.334,4.667,26c6.666-46,14.666-92.667,44-131.333l2-10c-15.334-5.333-33.334,10.667-45.334,18.667
		c-18,12.667-34,26.667-54,36.667c-19.333,10-42,17.333-64,16.667c-11.333-0.667-20.666-6-30.666-8
		c22.666,20.667,69.333,16.667,96,10C248.333,119,227.662,124.201,187,132.334c-20,4-38.02,4.203-70-13.334
		c-20.667-11.333-25.333-36.667-27.333-34.667l-13.334-42C69,49,75,88.333,77,97c6,27.334,30,42.667,58,48.667"/>
</g>
</svg>
