<?xml version="1.0" encoding="utf-8"?>
<!-- Generator: Adobe Illustrator 16.0.0, SVG Export Plug-In . SVG Version: 6.00 Build 0)  -->
<!DOCTYPE svg PUBLIC "-//W3C//DTD SVG 1.1//EN" "http://www.w3.org/Graphics/SVG/1.1/DTD/svg11.dtd">
<svg version="1.1" id="Layer_1" xmlns="http://www.w3.org/2000/svg" xmlns:xlink="http://www.w3.org/1999/xlink" x="0px" y="0px"
	 width="600px" height="200px" viewBox="0 0 600 200" enable-background="new 0 0 600 200" xml:space="preserve">
<g>
	<path fill="#231F20" d="M574.21,176.895C571,176,570,172,567,170c-1-1-2-1-3-2c-9-10-13-23-16-36c0-2,0-5,0-7c5-30,1-63-22-84
		c-26-22-60-12-89.917-12.764c15.061,6.929,38.522,10.438,41.667,30.208C476,58,473,58,471,58c-28-7-51-17-78-25
		c-52-16-106-3-152.75,19.194c12.792-0.864,31.69-7.323,40.972,5.208c-8.089,5.001-18.328,1.49-27.195,2.585
		c-10.782,1.332-20.942,5.909-30.836,10.144c-20.047,8.58-39.13,19.174-57.651,30.648c-15.699,9.725-31.212,19.79-47.513,28.498
		c11.65-1.215,23.271-3.262,34.822-5.188c8.636-1.44,17.709-4.67,22.46-12.514c0.345,0.011,0.827-0.127,1.174-0.065l-0.042,0.075
		c-0.324-0.086-0.784,0.022-1.122-0.016c0.268,2.809-2.994,5.72-4.733,7.512C158,130,127,152,126,153c-3,2-39,24-58,29
		c-19,4-38,9-55.875,2.139c2.381,0.374,5.092,0.524,7.118,1.965c-2.491,0.047-4.85-1.068-7.118-1.965
		c10.281,1.781,19.564,6.941,29.696,9.279c10.961,2.529,22.355,2.681,33.544,3.134c21.421,0.867,43.311-0.247,63.519-8.031
		c15.304-5.895,29.124-14.936,42.125-24.814c6.978-5.303,14.045-10.532,20.673-16.275c5.418-4.695,10.53-10.716,17.735-12.598
		c1.165,8.45-6.3,15.239-10.998,21.284c-6.536,8.411-13.365,16.797-18.863,25.938c9.35-0.576,17.022-7.366,24.427-12.375
		c9.234-6.246,18.334-12.619,27.298-19.251c17.512-12.956,35.756-24.769,54.896-35.18c7.529-4.096,15.438-8.846,24.281-8.889
		c-2.274,4.005-6.446,5.979-9.689,9.029C309,117,297,131,293,135c-4,6-9,13-11,20c0,1,14-6,20-10c3-2,62-35,93-39
		c17-1,33,2,50.111,3.139c-1.817-0.72-3.654-1.623-5.638-1.72c1.585,1.199,3.674,1.703,5.638,1.72
		c-11.863-4.47-24.143,4.323-33.893,10.046c-11.831,6.944-23.537,14.399-33.121,24.329c9.412-3.943,17.563-10.333,27.088-14.051
		c10.228-3.992,21.036-6.755,31.873-8.462c19.854-3.126,40.836-1.303,58.652,8.547c14.198,7.85,25.644,19.653,38.264,29.659
		c11.638,9.227,24.874,18.234,40.404,17.501"/>
</g>
</svg>
