<?xml version="1.0" encoding="utf-8"?>
<!-- Generator: Adobe Illustrator 16.0.0, SVG Export Plug-In . SVG Version: 6.00 Build 0)  -->
<!DOCTYPE svg PUBLIC "-//W3C//DTD SVG 1.1//EN" "http://www.w3.org/Graphics/SVG/1.1/DTD/svg11.dtd">
<svg version="1.1" id="Layer_1" xmlns="http://www.w3.org/2000/svg" xmlns:xlink="http://www.w3.org/1999/xlink" x="0px" y="0px"
	 width="400px" height="200px" viewBox="0 0 400 200" enable-background="new 0 0 400 200" xml:space="preserve">
<g>
	<path fill="#231F20" d="M355.967,11.047c-1.97,2.872-4.182,5.489-6.588,7.883c-0.02,0.031-0.041,0.062-0.062,0.093
		c-0.006-0.004-0.011-0.008-0.017-0.013c-0.009,0.008-0.017,0.017-0.025,0.025c-0.225,0.352-0.471,0.689-0.74,1
		c-0.479,0.55-1.019,0.921-1.581,1.169C333.601,33.077,315.166,38.907,298,42.5c-15.5,3-26-2.5-40-6C265,50,281.5,61,297,58
		c-18,5.5-33.5,15.5-52,20c-23,5.5-43.5,2-66.5,1.5c15,11,42,18,60.5,18.5c-26,16.5-45.5,29-78,25.5c-17.5-2-36.5-9-50.5-20
		C104,98,98.5,92,94.5,84c-2-4.5-2.5-10-7-13.5c-3.5,14,5,34.5,10,47c3,9,20.5,28.5,13,37c-9.5,10-35,1-45-1.5c-15.5-3-29-9-42-17.5
		c20,31,47,54,86.5,49.5c24-3,46-8,68-19c10.5-5.5,21-10.5,30-17.5c4.5-4,8.5-9,14-12C211,155,196,170,180,184c19.5,1.5,45-7,61-17
		c15-9.5,27-21.5,36-37c3.5-6.5,8-20,16.5-22c9,19-5,52-14.5,68.5c15-15.5,32-27,44-46c11-18,14.5-35,17-55.5
		c1.5-15.5,6-32.5,16.5-45c7.5-8.5,21-14,27-22.5C374.429,4.011,364.629,6.611,355.967,11.047z"/>
</g>
</svg>
